<svg id="Layer_1" data-name="Layer 1" xmlns="http://www.w3.org/2000/svg" viewBox="0 0 298.91 299.93"><defs><style>.cls-1,.cls-8{fill:#fff;}.cls-2{fill:#a2a6b2;}.cls-3{fill:#dde0e8;}.cls-4,.cls-5{fill:none;}.cls-11,.cls-4,.cls-5,.cls-8,.cls-9{stroke:#000;stroke-linecap:round;stroke-linejoin:round;}.cls-11,.cls-4,.cls-8,.cls-9{stroke-width:1px;}.cls-5{stroke-width:1.99px;}.cls-6{fill:#4e8125;}.cls-7{fill:#669c2d;}.cls-9{fill:#b8cae6;}.cls-10{fill:#98d23d;}.cls-11{fill:#f1e2ba;}.cls-12{fill:#b5261e;}.cls-13{fill:#355b10;}.cls-14{fill:#676c7c;}</style></defs><title>rick-and-morty-duct-tape-pickle-rick</title><path class="cls-1" d="M61,295a6,6,0,0,1-4.26-2.09L7,234.45A6,6,0,0,1,7.65,226l73.94-62.83c-11.83-16-23.43-33.17-35.36-52.4A117.55,117.55,0,0,1,30.45,69.08c-2.15-12.23-3.87-34.65,8.87-47.43C50.47,10.46,61.8,5,74,5a43.89,43.89,0,0,1,7.66.69c14.73,2.61,24,12.76,33,22.57,1.37,1.49,2.73,3,4.12,4.45,12.22,13,21.54,25.75,31.41,39.29,3.61,5,7.61,10.44,12,16.21l77.4-64.51a6,6,0,0,1,3.83-1.39l.62,0A6,6,0,0,1,248,24.61l45.15,57.28a6,6,0,0,1-.86,8.28l-73.68,61.77c5.46,5.38,10.67,10.38,15.36,14.89l.22.21c4.11,4,8,7.69,11.46,11.1l1.22,1.2c9.06,8.93,17.62,17.37,23.28,29.13,6.27,13.06,5.16,33.24,2.84,39.94-3.08,8.87-21.59,26.45-50.44,26.92h-1c-17.1,0-34.72-6.91-52.38-20.54a393.75,393.75,0,0,1-30.88-26.57c-18,15.52-70.56,63-72.95,65.21a6,6,0,0,1-4,1.55Z" transform="translate(-0.56 -0.04)"/><path class="cls-1" d="M74,10a39.66,39.66,0,0,1,6.79.61c13.07,2.32,21.37,11.41,30.17,21,1.37,1.5,2.75,3,4.16,4.51,12,12.73,21.24,25.4,31,38.81,4.65,6.38,9.61,13.17,15.21,20.45l.36-.34,81-67.52a1,1,0,0,1,.64-.23h.11a1,1,0,0,1,.67.38L289.26,85a1,1,0,0,1-.14,1.38l-77.86,65.28c6.92,6.9,13.45,13.18,19.35,18.85,4.16,4,8.09,7.78,11.57,11.21l1.22,1.2c8.75,8.62,17,16.76,22.29,27.74,5.38,11.19,4.74,30,2.62,36.15-2.34,6.75-18.85,23.13-45.81,23.56h-.95c-16,0-32.57-6.56-49.34-19.5a388.14,388.14,0,0,1-33.7-29.34C124.8,232.88,62.62,289.17,62,289.74a1,1,0,0,1-.67.26h-.06a1,1,0,0,1-.7-.35l-49.8-58.43a1,1,0,0,1-.23-.73,1,1,0,0,1,.34-.67L88.38,164c-12.68-16.86-25.25-35.38-37.91-55.8A112.48,112.48,0,0,1,35.36,68.22c-2-11.28-3.66-31.87,7.49-43C53.05,14.93,63.09,10,74,10M74,0h0C60.41,0,47.92,6,35.79,18.13,21.47,32.51,23.22,56.77,25.55,70A122.14,122.14,0,0,0,42,113.41c11.07,17.86,21.86,34,32.82,49L4.42,222.22a11.09,11.09,0,0,0-3.83,7.49,10.87,10.87,0,0,0,2.58,8L53,296.11a11,11,0,0,0,7.63,3.83h.71a11,11,0,0,0,7.36-2.83c2.28-2.06,49.14-44.47,69.47-62.19,9.11,8.49,18.49,16.48,28,23.79,18.55,14.32,37.2,21.59,55.43,21.59h1.11a71,71,0,0,0,37.35-11c8.75-5.6,15.53-13,17.71-19.27,3.07-8.85,3.41-30.29-3.05-43.74-6-12.55-15.31-21.68-24.28-30.52l-1.22-1.2c-3.48-3.43-7.37-7.18-11.5-11.14l-.16-.15c-3.56-3.43-7.42-7.13-11.45-11.07L295.52,94a10.9,10.9,0,0,0,1.56-15.19L251.94,21.53a11,11,0,0,0-7.46-4.12c-.4,0-.78-.06-1.15-.06a11,11,0,0,0-7,2.55L162.94,81.05c-3.15-4.23-6.08-8.25-8.79-12-10-13.67-19.38-26.58-31.82-39.77-1.35-1.44-2.72-2.94-4-4.39C108.74,14.49,98.89,3.71,82.48.8A48.7,48.7,0,0,0,74,0Z" transform="translate(-0.56 -0.04)"/><path class="cls-2" d="M243.33,28.31l-81,67.49L89.43,164.38,11.52,230.57,61.32,289s62.94-57,76.64-68.33,71.68-69,71.68-69l78.84-66.09Z" transform="translate(-0.56 -0.04)"/><path class="cls-3" d="M65,191a140.24,140.24,0,0,0,17.31-20.57l-53,45a6.5,6.5,0,0,1,.66-.27C43.43,210.5,55.07,200.82,65,191Z" transform="translate(-0.56 -0.04)"/><path class="cls-3" d="M28.19,242.22c-1-.84-1.93-1.63-2.83-2.46-2.14-1-5.35-1.74-6.17-.18L28.5,250.5C30.14,248.13,29.75,244.73,28.19,242.22Z" transform="translate(-0.56 -0.04)"/><path class="cls-3" d="M40.51,263.08a5.38,5.38,0,0,0,1.65-2,6.26,6.26,0,0,0,.48-1.7c0-.31.09-.21-.2-.37a2.73,2.73,0,0,0-1.15-.18A7.63,7.63,0,0,0,37,260.28l-.13.07,2.9,3.41A2.72,2.72,0,0,1,40.51,263.08Z" transform="translate(-0.56 -0.04)"/><path class="cls-3" d="M262.14,60.25c1.86.91,3.8-.08,5.27-1.39l-4.68-5.94C260.64,54.91,258.57,58.51,262.14,60.25Z" transform="translate(-0.56 -0.04)"/><path class="cls-3" d="M270.88,100.15c-7.61,6.09-15.83,11.33-24,16.65-8.83,5.76-17.48,11.79-24.63,19.61a78.75,78.75,0,0,0-9.11,12l-.36.61,75.67-63.44-1.58-2C283.39,90.28,276.6,95.57,270.88,100.15Z" transform="translate(-0.56 -0.04)"/><path class="cls-3" d="M52.15,268.56c-.77-1.17-4.78-1.68-5.67-.47a2.82,2.82,0,0,1-2,1.17l4.57,5.36.17-.08C51.19,273.91,53.5,270.64,52.15,268.56Z" transform="translate(-0.56 -0.04)"/><line class="cls-4" x1="236.49" y1="40.12" x2="245.97" y2="52.31"/><path class="cls-4" d="M277.7,71.91s-12,5.29-11.14-3.86" transform="translate(-0.56 -0.04)"/><line class="cls-4" x1="279.36" y1="74.69" x2="277.24" y2="77.71"/><line class="cls-4" x1="44.63" y1="270.04" x2="50.82" y2="267.52"/><path class="cls-4" d="M37.27,260.78s5.29-3.1,5.34-.09" transform="translate(-0.56 -0.04)"/><path class="cls-5" d="M243.33,28.31l-81,67.49L89.43,164.38,11.52,230.57,61.32,289s62.94-57,76.64-68.33,71.68-69,71.68-69l78.84-66.09Z" transform="translate(-0.56 -0.04)"/><path class="cls-6" d="M36.34,68.05a111.09,111.09,0,0,0,15,39.59c33.47,54,71.76,104,121.51,142.42,14.67,11.32,31.45,19.58,49.67,19.29,27.67-.45,43-17.41,44.88-22.9s2.87-24-2.58-35.39-14.35-19.82-23.31-28.66c-14.63-14.43-36.43-34.19-59-59.78-31.86-36-44-60.26-68.07-85.79-10.29-10.91-19-22.62-33.79-25.24-15.15-2.68-26.8,4-37,14.28S34,54.86,36.34,68.05Z" transform="translate(-0.56 -0.04)"/><path class="cls-7" d="M209.63,220.7c2.7,1.81,5.48,3.65,8.64,4.37s6.86.1,8.95-2.38c1.86-2.2,2.11-5.41,1.36-8.18a26.87,26.87,0,0,0-4-7.62c-10-14.93-20.16-30.16-34.46-41-3.89-2.94-8.42-5.64-13.29-5.36-5.49.32-10.27,4.61-12.1,9.79s17.89,28.7,20.56,31.48C192.48,209.23,201.1,215,209.63,220.7Z" transform="translate(-0.56 -0.04)"/><path class="cls-7" d="M67,35.11a18.72,18.72,0,0,0-6.17,16.68c.59,3.83,2.36,7.37,4.21,10.77A198.11,198.11,0,0,0,98.2,107.22c6.08,6.16,12.6,11.94,17.9,18.79,4.89,6.31,9.19,13.88,16.65,16.73a16.66,16.66,0,0,0,22.31-12.44c1.65-8.65-3.6-17-8.61-24.19L103.91,44.54c-2.35-3.4-4.74-6.84-7.93-9.46-4.47-3.67-9-3.5-14.37-4.21A18.77,18.77,0,0,0,67,35.11Z" transform="translate(-0.56 -0.04)"/><circle class="cls-8" cx="74.94" cy="66.54" r="13.43"/><path class="cls-4" d="M75.76,63.6s-1.34,3-1.34,3" transform="translate(-0.56 -0.04)"/><line class="cls-4" x1="73.54" y1="63.59" x2="75.06" y2="66.38"/><path class="cls-4" d="M73.43,65.12c.06.06,3.32-.05,3.32-.05" transform="translate(-0.56 -0.04)"/><circle class="cls-8" cx="96.79" cy="49.75" r="12.83"/><path class="cls-4" d="M99.64,46s-1.34,3-1.34,3" transform="translate(-0.56 -0.04)"/><line class="cls-4" x1="97.42" y1="46.01" x2="98.94" y2="48.8"/><path class="cls-4" d="M97.31,47.54c.06.06,3.32-.06,3.32-.06" transform="translate(-0.56 -0.04)"/><path class="cls-9" d="M58.85,54.24h-.18a2.61,2.61,0,0,1-2.47-2.73c.24-5,3.78-12.26,10.34-17.5a26.49,26.49,0,0,1,22.23-5.6,2.6,2.6,0,0,1,2.11,3c-.25,1.41-3,1.14-4.62,1.08-7.27-.26-11.74,1.14-16.75,5.13-5.66,4.51-8,10.92-8.11,14.12A2.61,2.61,0,0,1,58.85,54.24Z" transform="translate(-0.56 -0.04)"/><path class="cls-10" d="M78.84,16.37A2.75,2.75,0,0,1,81.43,16c1.75.8,1.68,3.6,3.35,4.55a4.5,4.5,0,0,0,2.25.37,3.74,3.74,0,0,1,2.22.49,1.39,1.39,0,0,1,.36,2c-.69.67-2,.16-2.66.91-.25.32-.29.78-.59,1.06a1.11,1.11,0,0,1-1.06.15,5.27,5.27,0,0,1-1-.54c-1.68-1-3.73-1.07-5.68-1.28s-4-.71-5.25-2.25a2.15,2.15,0,0,1-.5-2,2.2,2.2,0,0,1,1.58-1.18c.79-.22,1.84.16,2.55-.14S78.18,16.81,78.84,16.37Z" transform="translate(-0.56 -0.04)"/><path class="cls-4" d="M105,63.09s6.51,1.63,8.19-8.75" transform="translate(-0.56 -0.04)"/><path class="cls-4" d="M73.71,81.58s7.2,5.28,15.39-5.67" transform="translate(-0.56 -0.04)"/><path class="cls-4" d="M97.57,62.62c.3.79,8.47,9,6.37,12.11s-10.1-3.38-10.1-3.38" transform="translate(-0.56 -0.04)"/><path d="M88.29,85.19c5-3.24,10.29-3,15.27-6.15S111,69.25,111,69.25c2-4.24,6.26-6.92,10.5-4.93,4,1.87,4.94,7,4.9,10.84,0,4.67-2,12.41-12.54,20.7-2.91,2.45-12.75,8.69-19.9,9.61-8.2,1.06-12-1.83-13.27-7.73S83.3,88.43,88.29,85.19Z" transform="translate(-0.56 -0.04)"/><path class="cls-11" d="M120.83,82.71c-.85.88-.2,2.88,1.44,4.48a25.59,25.59,0,0,0,2.23-3.9C123.06,82.26,121.54,82,120.83,82.71Z" transform="translate(-0.56 -0.04)"/><path class="cls-11" d="M121.92,87.68c-1.38-1.59-3.14-2.32-4-1.61s-.6,2.84.82,4.66c.12.15.25.28.38.42A33.58,33.58,0,0,0,121.92,87.68Z" transform="translate(-0.56 -0.04)"/><path class="cls-11" d="M114.42,90c-1,.76-.59,2.84.83,4.65l0,0c1.21-1,2.29-2,3.26-3C117.15,90,115.35,89.28,114.42,90Z" transform="translate(-0.56 -0.04)"/><path class="cls-11" d="M114.43,95.4l0-.06c-1.05-2-2.79-3.26-3.88-2.7s-1.12,2.68-.07,4.73c.13.24.26.47.4.69a33.47,33.47,0,0,0,3-2.2C114.07,95.71,114.24,95.56,114.43,95.4Z" transform="translate(-0.56 -0.04)"/><path class="cls-11" d="M106.09,96.06c-1.4.72-1.69,3-.64,5a1.1,1.1,0,0,0,.09.14c1.81-1,3.5-2,4.92-2.9C109.39,96.37,107.47,95.35,106.09,96.06Z" transform="translate(-0.56 -0.04)"/><path class="cls-11" d="M100.67,99.14c-1,.54-1.11,2.5-.19,4.46,1.36-.55,2.71-1.17,4-1.84C103.44,99.76,101.74,98.59,100.67,99.14Z" transform="translate(-0.56 -0.04)"/><path class="cls-11" d="M96.81,101.85c-.81.42-1,1.71-.66,3.19a32.86,32.86,0,0,0,4-1.32C99.15,102.19,97.75,101.37,96.81,101.85Z" transform="translate(-0.56 -0.04)"/><path class="cls-11" d="M86.93,86.1c.51,1.15,1.29,1.87,2.08,1.79,1.16-.12,1.93-1.91,1.8-4.06a18.21,18.21,0,0,0-2.52,1.36C87.82,85.49,87.37,85.79,86.93,86.1Z" transform="translate(-0.56 -0.04)"/><path class="cls-11" d="M94.68,85.65c.94-.33,1.31-1.79,1-3.5a40.4,40.4,0,0,0-4,1.33C92.48,85.05,93.71,86,94.68,85.65Z" transform="translate(-0.56 -0.04)"/><path class="cls-11" d="M96.5,82.25c1.06,2,2.79,3.25,3.88,2.69s1.11-2.45.22-4.39A39.5,39.5,0,0,1,96.37,82C96.42,82.05,96.45,82.15,96.5,82.25Z" transform="translate(-0.56 -0.04)"/><path class="cls-11" d="M101,80.38a5.54,5.54,0,0,0,.37.83c1,2.05,2.78,3.26,3.88,2.7s1.12-2.68.07-4.73a8.42,8.42,0,0,0-.61-1c-.37.29-.75.57-1.15.83A18.45,18.45,0,0,1,101,80.38Z" transform="translate(-0.56 -0.04)"/><path class="cls-11" d="M105.58,78.64c1.65,1.6,3.69,2.18,4.54,1.3s.2-2.89-1.46-4.49a6.26,6.26,0,0,0-.75-.63A18.54,18.54,0,0,1,105,78C105.16,78.21,105.36,78.43,105.58,78.64Z" transform="translate(-0.56 -0.04)"/><path class="cls-11" d="M108,74.77c1.85,1.08,3.78,1.21,4.41.23s-.3-2.76-2.12-4A26.8,26.8,0,0,1,108,74.77Z" transform="translate(-0.56 -0.04)"/><path class="cls-11" d="M114.34,70.22c.58-.9-.12-2.42-1.59-3.63A11.86,11.86,0,0,0,111,69.25s-.15.41-.45,1.07C112.2,71.09,113.78,71.09,114.34,70.22Z" transform="translate(-0.56 -0.04)"/><path class="cls-12" d="M96.29,105a.37.37,0,0,0,0-.11,20.44,20.44,0,0,0-.63-2.29,7.84,7.84,0,0,1,3-8.23,9,9,0,0,0,2.42-1.85,1.75,1.75,0,0,0-.55-2.69c-1.13-.48-2.4.47-3.38,1A11.06,11.06,0,0,0,94.45,93a12.13,12.13,0,0,0-2.25,3.42,10.34,10.34,0,0,0,.53,9.14c.4,0,.81-.07,1.24-.13A20.66,20.66,0,0,0,96.29,105Z" transform="translate(-0.56 -0.04)"/><path class="cls-4" d="M88.29,85.19c5-3.24,10.29-3,15.27-6.15S111,69.25,111,69.25c2-4.24,6.26-6.92,10.5-4.93,4,1.87,4.94,7,4.9,10.84,0,4.67-2,12.41-12.54,20.7-2.91,2.45-12.75,8.69-19.9,9.61-8.2,1.06-12-1.83-13.27-7.73S83.3,88.43,88.29,85.19Z" transform="translate(-0.56 -0.04)"/><path class="cls-4" d="M112.43,63c5.69-2.57,14.25-3.58,17.72,3.33s-.83,16.95-5.53,23.75" transform="translate(-0.56 -0.04)"/><path class="cls-4" d="M79.11,88.06c-3.17,3.87-6.5,13.29.79,18.74,6.22,4.64,19.9,2,19.9,2" transform="translate(-0.56 -0.04)"/><path class="cls-7" d="M149.23,87.88c2,3.38,1.85,7.21-.39,8.56s-9.6-10.89-7.35-12.24S147.2,84.5,149.23,87.88Z" transform="translate(-0.56 -0.04)"/><path class="cls-13" d="M147.87,88.7c1.55,2.58,1.41,5.5-.3,6.53s-7.33-8.31-5.61-9.34S146.32,86.12,147.87,88.7Z" transform="translate(-0.56 -0.04)"/><path class="cls-7" d="M240.54,187.12c.78,3.17-.65,6.25-3.2,6.88s-5.37-10.86-2.83-11.49S239.75,184,240.54,187.12Z" transform="translate(-0.56 -0.04)"/><path class="cls-13" d="M239,187.5c.6,2.42-.49,4.77-2.44,5.25s-4.1-8.29-2.16-8.77S238.4,185.08,239,187.5Z" transform="translate(-0.56 -0.04)"/><path class="cls-7" d="M216.37,179.76a5.72,5.72,0,0,1,2.72,7.58c-1.4,2.63-11.92-3-10.52-5.6A5.71,5.71,0,0,1,216.37,179.76Z" transform="translate(-0.56 -0.04)"/><path class="cls-13" d="M215.52,181.36a4.34,4.34,0,0,1,2.07,5.78c-1.07,2-9.1-2.25-8-4.27A4.36,4.36,0,0,1,215.52,181.36Z" transform="translate(-0.56 -0.04)"/><path class="cls-7" d="M185.89,233.13a6.59,6.59,0,0,1-3.56-8.61c1.43-3.29,13.7,2,12.28,5.31A6.6,6.6,0,0,1,185.89,233.13Z" transform="translate(-0.56 -0.04)"/><path class="cls-13" d="M186.75,231.14a5,5,0,0,1-2.71-6.58c1.09-2.51,10.46,1.54,9.37,4.06A5,5,0,0,1,186.75,231.14Z" transform="translate(-0.56 -0.04)"/><path class="cls-7" d="M108.81,151.57a6.88,6.88,0,0,1,.67-9.69c2.84-2.27,11.77,8.86,8.94,11.14A6.88,6.88,0,0,1,108.81,151.57Z" transform="translate(-0.56 -0.04)"/><path class="cls-13" d="M110.53,150.19a5.25,5.25,0,0,1,.51-7.39c2.17-1.74,9,6.76,6.82,8.5A5.25,5.25,0,0,1,110.53,150.19Z" transform="translate(-0.56 -0.04)"/><path class="cls-5" d="M36.34,68.05a111.09,111.09,0,0,0,15,39.59c33.47,54,71.76,104,121.51,142.42,14.67,11.32,31.45,19.58,49.67,19.29,27.67-.45,43-17.41,44.88-22.9s2.87-24-2.58-35.39-14.35-19.82-23.31-28.66c-14.63-14.43-36.43-34.19-59-59.78-31.86-36-44-60.26-68.07-85.79-10.29-10.91-19-22.62-33.79-25.24-15.15-2.68-26.8,4-37,14.28S34,54.86,36.34,68.05Z" transform="translate(-0.56 -0.04)"/><path class="cls-2" d="M89.73,164.15a490.59,490.59,0,0,0,50.8,57.94c13.95-6.09,32.3-19.57,46.28-33.77,14.42-14.65,24.25-30,24.6-35.13-9.13-9.08-19-19.25-29-30.57-7.51-8.49-13.92-16.32-19.65-23.67C140.21,131.92,108.54,149.15,89.73,164.15Z" transform="translate(-0.56 -0.04)"/><path class="cls-14" d="M193.62,164.35s-.71-.82-1.77-1.88c-5.88-5.87-7.92-14.44-9.72-22.55a29.8,29.8,0,0,0-1.37-5.27,62.36,62.36,0,0,1-1.25-6.65,4.86,4.86,0,0,0-1.54,2.43,35.69,35.69,0,0,0-.35,8.7,39.22,39.22,0,0,0,5,17.94C187.09,164.7,193.62,164.35,193.62,164.35Z" transform="translate(-0.56 -0.04)"/><path class="cls-3" d="M184.4,135.91c1.63,10.94,5.57,18,9.22,28.44-.46-1.3-1.42-1.11-2.2-2.29-.95-1.42-1.84-2.89-2.67-4.39a66.93,66.93,0,0,1-4.26-9.17,89.86,89.86,0,0,1-5-20.5C183.66,130.19,184.19,134.54,184.4,135.91Z" transform="translate(-0.56 -0.04)"/><path class="cls-3" d="M172.94,148l-4.69-11.13c-1.21-2.87-2.44-5.84-2.4-9a18.3,18.3,0,0,0,0-3.31,3,3,0,0,0-1.89-2.53,2.69,2.69,0,0,0-2.57.79,5.37,5.37,0,0,0-1.27,2.5c-.93,3.65,0,7.49,1,11.14l2.5,9.32c1,3.78,2.46,10.55,6.47,12.42,2.1,1,3.6-1,4.13-2.87C175,152.84,173.91,150.29,172.94,148Z" transform="translate(-0.56 -0.04)"/><path class="cls-14" d="M161.7,108.25c-.53-1.11-1.25-2.34-2.46-2.55a2.34,2.34,0,0,0-2.18.93,3.42,3.42,0,0,0-.64,2.35c.14,1.88,1.44,3.45,2.68,4.87,2.17,2.52,4.26,5.6,6.78,7.74C167.59,120,162.64,110.22,161.7,108.25Z" transform="translate(-0.56 -0.04)"/><path class="cls-14" d="M89.73,164.15a490.59,490.59,0,0,0,50.8,57.94c7.94-3.47,17.3-9.32,26.47-16.34-10.93-5-20.85-15.66-29.89-25.14C124.56,167.45,114.29,155,110.56,149,102.8,154.51,95.63,159.44,89.73,164.15Z" transform="translate(-0.56 -0.04)"/><path class="cls-4" d="M89.43,164.38" transform="translate(-0.56 -0.04)"/><line class="cls-4" x1="92.55" y1="161.5" x2="94.12" y2="164.25"/><line class="cls-4" x1="96.05" y1="167.76" x2="107.61" y2="181.08"/><path class="cls-4" d="M96.45,159s5.22,7.88,7.55,8.63-1.87-8.14-1.87-8.14" transform="translate(-0.56 -0.04)"/><path class="cls-4" d="M119.69,150.64c.25,1.32,9.05,14.83,9.05,14.83" transform="translate(-0.56 -0.04)"/><line class="cls-4" x1="117.9" y1="143.14" x2="128.11" y2="160.88"/><path class="cls-4" d="M193.34,164.36C183,157.12,179.51,128,179.51,128" transform="translate(-0.56 -0.04)"/><line class="cls-4" x1="158.08" y1="112.58" x2="166.36" y2="123.09"/><path class="cls-4" d="M89.73,164.15a490.59,490.59,0,0,0,50.8,57.94c13.95-6.09,32.3-19.57,46.28-33.77,14.42-14.65,24.25-30,24.6-35.13-9.13-9.08-19-19.25-29-30.57-7.51-8.49-13.92-16.32-19.65-23.67C140.21,131.92,108.54,149.15,89.73,164.15Z" transform="translate(-0.56 -0.04)"/></svg>